# xmcd CD database file
#
# Track frame offsets:
#	150
#	33902
#	58046
#	84668
#	107317
#	122091
#	151714
#	176994
#
# Disc length: 2837 seconds
#
# Revision: 0
# Processed by: cddbd v1.5.2PL0 Copyright (c) Steve Scherf et al.
# Submitted via: CDex 1.51
#
DISCID=5b0b1308
DTITLE=米澤美玖 - Another World
DYEAR=2018
DGENRE=Jazz
TTITLE0=Revival
TTITLE1=Aroma Night (For Moon City)
TTITLE2=Plasma
TTITLE3=Merry-go-round In The Sky
TTITLE4=Astral Projection
TTITLE5=Your Happiness
TTITLE6=Providence
TTITLE7=Beyond The Forest
EXTD=YEAR: 2018
EXTT0=
EXTT1=
EXTT2=
EXTT3=
EXTT4=
EXTT5=
EXTT6=
EXTT7=
PLAYORDER=
